<svg xmlns="http://www.w3.org/2000/svg" xmlns:xlink="http://www.w3.org/1999/xlink" width="100" zoomAndPan="magnify" viewBox="0 0 75 74.999997" height="100" preserveAspectRatio="xMidYMid meet" version="1.0"><defs><g/></defs><g fill="#FFFCF2" fill-opacity="1"><g transform="translate(4.423829, 51.749995)"><g><path d="M 9.40625 -14.488281 L 13.609375 -3.695312 L 23.855469 -3.695312 L 28.054688 -14.488281 L 28.6875 -14.488281 L 25.871094 -7.265625 L 25.871094 0 L 36.960938 0 L 36.960938 -29.398438 L 24.738281 -29.398438 L 18.730469 -15.625 L 12.726562 -29.398438 L 0.460938 -29.398438 L 0.460938 0 L 11.59375 0 L 11.59375 -7.265625 L 8.777344 -14.488281 Z M 9.40625 -14.488281 "/></g></g></g><g fill="#FFFCF2" fill-opacity="1"><g transform="translate(41.803823, 51.749995)"><g><path d="M 6.972656 -18.898438 L 6.972656 0 L 17.851562 0 L 17.851562 -18.898438 L 24.402344 -18.898438 L 24.402344 -29.398438 L 0.421875 -29.398438 L 0.421875 -18.898438 Z M 6.972656 -18.898438 "/></g></g></g><g fill="#FFFCF2" fill-opacity="1"><g transform="translate(66.625816, 51.749995)"><g><path d="M 1.050781 -0.925781 C 1.050781 -0.421875 1.46875 0 1.972656 0 C 2.476562 0 2.898438 -0.421875 2.898438 -0.925781 C 2.898438 -1.429688 2.476562 -1.847656 1.972656 -1.847656 C 1.46875 -1.847656 1.050781 -1.429688 1.050781 -0.925781 Z M 1.050781 -0.925781 "/></g></g></g></svg>